HIERARCHY
ROOT Hip
{
	OFFSET 0 1.131 0.0052
	CHANNELS 6 Xposition Yposition Zposition Xrotation Yrotation Zrotation
	JOINT Abdomen
	{
		OFFSET 0 -0.047353 -0.05
		CHANNELS 3 Xrotation Zrotation Yrotation
		JOINT Chest
		{
			OFFSET 0 0.132153 0.007439
			CHANNELS 3 Xrotation Zrotation Yrotation
			JOINT Neck
			{
				OFFSET 0 0.3078 0.006161
				CHANNELS 3 Xrotation Zrotation Yrotation
				JOINT Head_comp
				{
					OFFSET 0 0.0884 0.013
					CHANNELS 3 Xrotation Yrotation Zrotation
					End Site
					{
						OFFSET -0 0.156 0.0624
					}
				}
			}
			JOINT Left_Collar
			{
				OFFSET 0.02282 0.250342 0.017193
				CHANNELS 2 Yrotation Zrotation
				JOINT Left_Shoulder
				{
					OFFSET 0.15421 0 0
					CHANNELS 3 Xrotation Yrotation Zrotation
					JOINT Left_Forearm
					{
						OFFSET 0.265212 0 0
						CHANNELS 2 Yrotation Xrotation
						JOINT Left_Hand
						{
							OFFSET 0.27571 0 0
							CHANNELS 2 Zrotation Yrotation
							JOINT L1ProxPhalanx
							{
								OFFSET 0.014142 0.001733 0.014142
								CHANNELS 3 Yrotation Zrotation Xrotation
								JOINT L1MidPhalanx
								{
									OFFSET 0.04 0 0
									CHANNELS 1 Zrotation
									JOINT L1DistPhalanx
									{
										OFFSET 0.035 0 0
										CHANNELS 1 Zrotation
										End Site
										{
											OFFSET 0.029 -0 -0
										}
									}
								}
							}
							JOINT L2ProxPhalanx
							{
								OFFSET 0.0821037 0.001578 0.0219996
								CHANNELS 2 Yrotation Zrotation
								JOINT L2MidPhalanx
								{
									OFFSET 0.04 0 0
									CHANNELS 1 Zrotation
									JOINT L2DistPhalanx
									{
										OFFSET 0.028 0 0
										CHANNELS 1 Zrotation
										End Site
										{
											OFFSET 0.02 -0 -0
										}
									}
								}
							}
							JOINT L3ProxPhalanx
							{
								OFFSET 0.083 0 0
								CHANNELS 2 Yrotation Zrotation
								JOINT L3MidPhalanx
								{
									OFFSET 0.053 0 0
									CHANNELS 1 Zrotation
									JOINT L3DistPhalanx
									{
										OFFSET 0.03 0 0
										CHANNELS 1 Zrotation
										End Site
										{
											OFFSET 0.023 -0 -0
										}
									}
								}
							}
							JOINT L4ProxPhalanx
							{
								OFFSET 0.077274 -0.000761 -0.0207055
								CHANNELS 2 Yrotation Zrotation
								JOINT L4MidPhalanx
								{
									OFFSET 0.05 0 0
									CHANNELS 1 Zrotation
									JOINT L4DistPhalanx
									{
										OFFSET 0.03 0 0
										CHANNELS 1 Zrotation
										End Site
										{
											OFFSET 0.023 -0 -0
										}
									}
								}
							}
							JOINT L5ProxPhalanx
							{
								OFFSET 0.0675499 -0.001644 -0.039
								CHANNELS 2 Yrotation Zrotation
								JOINT L5MidPhalanx
								{
									OFFSET 0.04 0 0
									CHANNELS 1 Zrotation
									JOINT L5DistPhalanx
									{
										OFFSET 0.021 0 0
										CHANNELS 1 Zrotation
										End Site
										{
											OFFSET 0.022 -0 -0
										}
									}
								}
							}
						}
					}
				}
			}
			JOINT Right_Collar
			{
				OFFSET -0.02282 0.250342 0.017193
				CHANNELS 2 Yrotation Zrotation
				JOINT Right_Shoulder
				{
					OFFSET -0.15421 0 0
					CHANNELS 3 Xrotation Yrotation Zrotation
					JOINT Right_Forearm
					{
						OFFSET -0.265212 0 0
						CHANNELS 2 Yrotation Xrotation
						JOINT Right_Hand
						{
							OFFSET -0.27571 3e-006 0
							CHANNELS 2 Zrotation Yrotation
							JOINT R1ProxPhalanx
							{
								OFFSET -0.014142 0.001733 0.014142
								CHANNELS 3 Yrotation Zrotation Xrotation
								JOINT R1MidPhalanx
								{
									OFFSET -0.04 0 0
									CHANNELS 1 Zrotation
									JOINT R1DistPhalanx
									{
										OFFSET -0.035 0 0
										CHANNELS 1 Zrotation
										End Site
										{
											OFFSET -0.029 -0 -0
										}
									}
								}
							}
							JOINT R2ProxPhalanx
							{
								OFFSET -0.0821037 0.001578 0.0219996
								CHANNELS 2 Yrotation Zrotation
								JOINT R2MidPhalanx
								{
									OFFSET -0.04 0 0
									CHANNELS 1 Zrotation
									JOINT R2DistPhalanx
									{
										OFFSET -0.028 0 0
										CHANNELS 1 Zrotation
										End Site
										{
											OFFSET -0.02 -0 -0
										}
									}
								}
							}
							JOINT R3ProxPhalanx
							{
								OFFSET -0.083 0 0
								CHANNELS 2 Yrotation Zrotation
								JOINT R3MidPhalanx
								{
									OFFSET -0.053 0 0
									CHANNELS 1 Zrotation
									JOINT R3DistPhalanx
									{
										OFFSET -0.03 0 0
										CHANNELS 1 Zrotation
										End Site
										{
											OFFSET -0.023 -0 -0
										}
									}
								}
							}
							JOINT R4ProxPhalanx
							{
								OFFSET -0.077274 -0.000761 -0.0207055
								CHANNELS 2 Yrotation Zrotation
								JOINT R4MidPhalanx
								{
									OFFSET -0.05 0 0
									CHANNELS 1 Zrotation
									JOINT R4DistPhalanx
									{
										OFFSET -0.03 0 0
										CHANNELS 1 Zrotation
										End Site
										{
											OFFSET -0.023 -0 -0
										}
									}
								}
							}
							JOINT R5ProxPhalanx
							{
								OFFSET -0.0675499 -0.001644 -0.039
								CHANNELS 2 Yrotation Zrotation
								JOINT R5MidPhalanx
								{
									OFFSET -0.04 0 0
									CHANNELS 1 Zrotation
									JOINT R5DistPhalanx
									{
										OFFSET -0.021 0 0
										CHANNELS 1 Zrotation
										End Site
										{
											OFFSET -0.022 -0 -0
										}
									}
								}
							}
						}
					}
				}
			}
		}
	}
	JOINT Left_Thigh
	{
		OFFSET 0.1118 -0.1612 -0.0442
		CHANNELS 3 Xrotation Zrotation Yrotation
		JOINT Left_Shin
		{
			OFFSET 0 -0.477856 0
			CHANNELS 1 Xrotation
			JOINT Left_Foot
			{
				OFFSET 0 -0.431952 0
				CHANNELS 2 Xrotation Zrotation
				JOINT Left_Toe
				{
					OFFSET 0 -0.0442 0.119
					CHANNELS 1 Xrotation
					End Site
					{
						OFFSET -0 -0 0.07
					}
				}
			}
		}
	}
	JOINT Right_Thigh
	{
		OFFSET -0.1118 -0.1612 -0.0442
		CHANNELS 3 Xrotation Zrotation Yrotation
		JOINT Right_Shin
		{
			OFFSET 0 -0.477856 0
			CHANNELS 1 Xrotation
			JOINT Right_Foot
			{
				OFFSET 0 -0.431952 0
				CHANNELS 2 Xrotation Zrotation
				JOINT Right_Toe
				{
					OFFSET 0 -0.0442 0.119
					CHANNELS 1 Xrotation
					End Site
					{
						OFFSET -0 -0 0.07
					}
				}
			}
		}
	}
}
MOTION
Frames: 12
Frame Time: 0.009975
-0.101145 -0.060265 0.058572 2.05615e-013 1.08625e-007 -5.10852e-006 0 -0 0 0 -0 0 0 -0 0 -0.713904 0.29061 -2.05603e-011 -0.147487 -6.23595 28.1386 -14.0099 -62.6276 -84.0619 0.967459 1.2271 1.15346 -44.3454 -19.3218 77.4695 -7.74014 -14.4413 -3.2241 -13.65 -27.8786 -11.7288 1.35485 -20.6631 -15.7985 -14.8711 8.49039 -20.7971 -28.5584 -16.1633 14.5659 -23.3331 -24.3748 -29.5098 -0.189083 6.95651 28.2622 10.9779 62.2701 84.0675 0.213092 -0.698025 -0.170806 44.326 23.7567 75.8309 24.7154 25.6898 10.5096 15.4543 25.7899 16.9533 -0.93203 20.0933 27.5121 24.2551 -7.89413 28.635 26.121 18.4742 -7.6035 29.136 20.2969 27.9005 1.22133 -0.671035 -0.0143058 0.0240216 -1.24527 0.671193 0 1.23274 -0.671032 -0.0144393 2.41484e-006 -1.23266 0.671193 0 
-0.101187 -0.0602743 0.0590224 -5.52532e-013 1.11244e-007 -5.10846e-006 0 -0 0 0 -0 0 0 -0 0 -0.713965 0.290757 -1.8866e-011 -0.115161 -5.72086 28.7125 -13.3924 -63.6854 -83.8531 0.755411 0.958141 0.900643 -43.1857 -20.9541 77.4719 -7.28363 -14.1043 -3.74725 -14.0807 -28.4113 -12.0023 1.04762 -21.2527 -16.1733 -15.3655 8.57303 -20.985 -30.0437 -16.6508 14.9922 -22.5792 -26.852 -30.7276 -0.147654 6.28391 28.8208 11.0237 63.3937 83.8343 0.166402 -0.545082 -0.133381 43.3462 24.4088 75.5035 24.9493 26.1128 10.9097 15.878 26.2861 17.3648 -0.789054 20.4526 28.2949 24.8487 -8.00728 28.9526 27.0543 19.2856 -7.63838 28.7678 22.5758 28.2255 1.24971 -0.668344 -0.0145795 0.0240216 -1.27364 0.668508 0 1.26111 -0.668341 -0.0147125 8.62311e-007 -1.26103 0.668508 0 
-0.101228 -0.0602831 0.0594402 1.35074e-013 1.13696e-007 -5.1084e-006 0 -0 0 0 -0 0 0 -0 0 -0.714024 0.290897 -1.69318e-011 -0.0849068 -5.23873 29.2363 -12.8165 -64.6785 -83.6144 0.556956 0.706427 0.664035 -42.026 -22.5864 77.4743 -6.82713 -13.7673 -4.27039 -14.5113 -28.944 -12.2757 0.740391 -21.8424 -16.5481 -15.86 8.65567 -21.1729 -31.529 -17.1383 15.4184 -21.8253 -29.3292 -31.9455 -0.108872 5.65427 29.3234 11.0697 64.4536 83.5817 0.122697 -0.401916 -0.0983483 42.3664 25.0608 75.1761 25.1833 26.5358 11.3099 16.3018 26.7824 17.7763 -0.646078 20.8119 29.0776 25.4423 -8.12044 29.2701 27.9877 20.0969 -7.67326 28.3995 24.8547 28.5506 1.27603 -0.665821 -0.0148305 0.0240216 -1.29996 0.665991 0 1.28743 -0.665818 -0.014963 8.40967e-007 -1.28734 0.665991 0 
-0.101264 -0.0602913 0.0598181 -4.33052e-013 1.15946e-007 -5.10835e-006 0 -0 0 0 -0 0 0 -0 0 -0.714078 0.291029 -1.46981e-011 -0.0573625 -4.79979 29.7014 -12.2942 -65.584 -83.3596 0.376277 0.477258 0.448618 -40.8663 -24.2187 77.4767 -6.37062 -13.4303 -4.79354 -14.942 -29.4767 -12.5492 0.433163 -22.4321 -16.9229 -16.3544 8.7383 -21.3607 -33.0142 -17.6258 15.8447 -21.0713 -31.8064 -33.1633 -0.0735582 5.08092 29.7635 11.1136 65.4255 83.3225 0.0828983 -0.271549 -0.0664477 41.3866 25.7129 74.8487 25.4173 26.9588 11.71 16.7256 27.2786 18.1879 -0.503102 21.1713 29.8603 26.0359 -8.23359 29.5877 28.921 20.9083 -7.70814 28.0312 27.1336 28.8756 1.29983 -0.663503 -0.0150547 0.0240216 -1.32377 0.663679 0 1.31124 -0.6635 -0.0151868 8.70849e-007 -1.31115 0.663679 0 
-0.101297 -0.0602984 0.0601458 -3.5663e-013 1.17947e-007 -5.1083e-006 0 -0 0 0 -0 0 0 -0 0 -0.714128 0.291152 -1.20916e-011 -0.033452 -4.41886 30.095 -11.8431 -66.3706 -83.1074 0.219432 0.278322 0.26162 -39.7066 -25.851 77.4791 -5.91412 -13.0933 -5.31669 -15.3727 -30.0094 -12.8226 0.125935 -23.0217 -17.2978 -16.8488 8.82094 -21.5486 -34.4995 -18.1133 16.2709 -20.3174 -34.2835 -34.3812 -0.0428985 4.58317 30.1317 11.1535 66.2744 83.0745 0.0483456 -0.158365 -0.0387517 40.4068 26.365 74.5213 25.6512 27.3818 12.1101 17.1493 27.7749 18.5994 -0.360127 21.5306 30.6431 26.6295 -8.34674 29.9052 29.8544 21.7197 -7.74302 27.663 29.4125 29.2006 1.32048 -0.66145 -0.0152466 0.0240216 -1.34441 0.661631 0 1.33188 -0.661447 -0.0153783 8.32429e-007 -1.33179 0.661631 0 
-0.101324 -0.0603042 0.0604072 -4.95605e-013 1.19629e-007 -5.10826e-006 0 -0 0 0 -0 0 0 -0 0 -0.714171 0.291265 -9.0487e-012 -0.014616 -4.11905 30.3967 -11.4906 -66.9906 -82.8843 0.0958756 0.121606 0.114308 -38.5469 -27.4833 77.4815 -5.45761 -12.7563 -5.83983 -15.8034 -30.542 -13.0961 -0.181294 -23.6114 -17.6726 -17.3432 8.90358 -21.7365 -35.9847 -18.6008 16.6971 -19.5635 -36.7607 -35.599 -0.0187435 4.19112 30.412 11.1876 66.9467 82.863 0.0211235 -0.0691941 -0.0169317 39.427 27.0171 74.1939 25.8852 27.8047 12.5103 17.5731 28.2711 19.0109 -0.217151 21.89 31.4258 27.223 -8.4599 30.2228 30.7877 22.5311 -7.7779 27.2947 31.6914 29.5257 1.33694 -0.659763 -0.0153975 0.0240216 -1.36087 0.659948 0 1.34835 -0.65976 -0.0155288 1.70755e-006 -1.34826 0.659948 0 
-0.101342 -0.060308 0.0605745 5.54034e-013 1.20879e-007 -5.10823e-006 0 -0 0 0 -0 0 0 -0 0 -0.714204 0.291363 -5.56227e-012 -0.00335599 -3.94025 30.5713 -11.2828 -67.361 -82.7351 0.022014 0.0279219 0.0262463 -37.3872 -29.1156 77.4838 -5.0011 -12.4192 -6.36298 -16.2341 -31.0747 -13.3695 -0.488522 -24.2011 -18.0474 -17.8376 8.98622 -21.9244 -37.47 -19.0883 17.1234 -18.8096 -39.2379 -36.8169 -0.00430358 3.9569 30.5748 11.2118 67.3496 82.7287 0.00485004 -0.0158872 -0.00388758 38.4472 27.6691 73.8665 26.1191 28.2277 12.9104 17.9969 28.7674 19.4224 -0.0741755 22.2493 32.2086 27.8166 -8.57305 30.5403 31.7211 23.3425 -7.81278 26.9265 33.9703 29.8507 1.34748 -0.65862 -0.015492 0.0240216 -1.37141 0.658807 0 1.35889 -0.658617 -0.0156231 2.41484e-006 -1.3588 0.658807 0 
-0.10135 -0.0603094 0.0606403 2.91467e-013 1.21492e-007 -5.10822e-006 0 -0 0 0 -0 0 0 -0 0 -0.714225 0.291432 -1.20257e-012 0 -3.88717 30.6226 -11.22 -67.4689 -82.6875 0 0 0 -36.7832 -29.9624 77.4898 -4.76427 -12.2444 -6.63439 -16.4575 -31.3511 -13.5114 -0.647911 -24.507 -18.2419 -18.0941 9.02909 -22.0218 -38.2405 -19.3412 17.3445 -18.4185 -40.523 -37.4487 0 3.88717 30.6229 11.2194 67.4681 82.6882 0 0 0 37.9386 28.008 73.698 26.2405 28.4472 13.118 18.2167 29.0248 19.6359 0 22.4358 32.6146 28.1246 -8.63175 30.7051 32.2053 23.7634 -7.83088 26.7354 35.1526 30.0193 1.35162 -0.658116 -0.0155278 0.0240216 -1.37556 0.658304 0 1.36303 -0.658113 -0.0156588 1.25571e-006 -1.36294 0.658304 0 
-0.101351 -0.0603097 0.0606504 -4.83506e-014 1.216e-007 -5.10821e-006 0 -0 0 0 -0 0 0 -0 0 -0.714231 0.291457 -3.22757e-015 0 -3.88717 30.6237 -11.2182 -67.4665 -82.6896 0 0 0 -36.7832 -29.9624 77.4898 -4.76427 -12.2444 -6.63439 -16.4575 -31.3511 -13.5114 -0.647911 -24.507 -18.2419 -18.0941 9.02909 -22.0218 -38.2405 -19.3412 17.3445 -18.4185 -40.523 -37.4487 0 3.88717 30.6237 11.2182 67.4665 82.6896 0 0 0 37.9386 28.008 73.698 26.2405 28.4472 13.118 18.2167 29.0248 19.6359 0 22.4358 32.6146 28.1246 -8.63175 30.7051 32.2053 23.7634 -7.83088 26.7354 35.1526 30.0193 1.35226 -0.658017 -0.0155328 0.0240216 -1.37619 0.658205 0 1.36366 -0.658014 -0.0156637 0 -1.36357 0.658205 0 
-0.101351 -0.0603097 0.0606505 7.04944e-013 1.21601e-007 -5.10821e-006 0 -0 0 0 -0 0 0 -0 0 -0.714232 0.291459 -3.88256e-019 0 -3.88717 30.6237 -11.2182 -67.4665 -82.6896 0 0 0 -36.7832 -29.9624 77.4898 -4.76427 -12.2444 -6.63439 -16.4575 -31.3511 -13.5114 -0.647911 -24.507 -18.2419 -18.0941 9.02909 -22.0218 -38.2405 -19.3412 17.3445 -18.4185 -40.523 -37.4487 0 3.88717 30.6237 11.2182 67.4665 82.6896 0 0 0 37.9386 28.008 73.698 26.2405 28.4472 13.118 18.2167 29.0248 19.6359 0 22.4358 32.6146 28.1246 -8.63175 30.7051 32.2053 23.7634 -7.83088 26.7354 35.1526 30.0193 1.35227 -0.658014 -0.0155328 0.0240216 -1.3762 0.658202 0 1.36367 -0.65801 -0.0156638 8.11085e-007 -1.36358 0.658202 0 
-0.101351 -0.0603097 0.0606505 2.10865e-013 1.21601e-007 -5.10821e-006 0 -0 0 0 -0 0 0 -0 0 -0.714232 0.291459 -0 0 -3.88717 30.6237 -11.2182 -67.4665 -82.6896 0 0 0 -36.7832 -29.9624 77.4898 -4.76427 -12.2444 -6.63439 -16.4575 -31.3511 -13.5114 -0.647911 -24.507 -18.2419 -18.0941 9.02909 -22.0218 -38.2405 -19.3412 17.3445 -18.4185 -40.523 -37.4487 0 3.88717 30.6237 11.2182 67.4665 82.6896 0 0 0 37.9386 28.008 73.698 26.2405 28.4472 13.118 18.2167 29.0248 19.6359 0 22.4358 32.6146 28.1246 -8.63175 30.7051 32.2053 23.7634 -7.83088 26.7354 35.1526 30.0193 1.35227 -0.658014 -0.0155328 0.0240216 -1.3762 0.658202 0 1.36367 -0.65801 -0.0156638 1.70755e-006 -1.36358 0.658202 0 
-0.101351 -0.0603097 0.0606505 -1.38002e-013 1.21601e-007 -5.10821e-006 0 -0 0 0 -0 0 0 -0 0 -0.714232 0.291459 -0 0 -3.88717 30.6237 -11.2182 -67.4665 -82.6896 0 0 0 -36.7832 -29.9624 77.4898 -4.76427 -12.2444 -6.63439 -16.4575 -31.3511 -13.5114 -0.647911 -24.507 -18.2419 -18.0941 9.02909 -22.0218 -38.2405 -19.3412 17.3445 -18.4185 -40.523 -37.4487 0 3.88717 30.6237 11.2182 67.4665 82.6896 0 0 0 37.9386 28.008 73.698 26.2405 28.4472 13.118 18.2167 29.0248 19.6359 0 22.4358 32.6146 28.1246 -8.63175 30.7051 32.2053 23.7634 -7.83088 26.7354 35.1526 30.0193 1.35227 -0.658014 -0.0155328 0.0240216 -1.3762 0.658202 0 1.36367 -0.65801 -0.0156638 2.41484e-006 -1.36358 0.658202 0 
